<?xml version="1.0" encoding="UTF-8" standalone="no"?>
<svg
   xmlns:dc="http://purl.org/dc/elements/1.1/"
   xmlns:cc="http://creativecommons.org/ns#"
   xmlns:rdf="http://www.w3.org/1999/02/22-rdf-syntax-ns#"
   xmlns:svg="http://www.w3.org/2000/svg"
   xmlns="http://www.w3.org/2000/svg"
   xmlns:sodipodi="http://sodipodi.sourceforge.net/DTD/sodipodi-0.dtd"
   xmlns:inkscape="http://www.inkscape.org/namespaces/inkscape"
   sodipodi:docname="drawing-1.svg"
   inkscape:version="1.0 (6e3e5246a0, 2020-05-07)"
   width="1912px"
   height="900px"
   viewBox="0 0 1912 900"
   version="1.1"
   id="SVGRoot">
  <defs
     id="defs4984">
    <linearGradient
       id="paint0_linear"
       x1="369.5"
       y1="153.5"
       x2="868"
       y2="652"
       gradientUnits="userSpaceOnUse"
       gradientTransform="matrix(-1,0,0,1,880.24595,239.3198)">
      <stop
         stop-color="white"
         id="stop1876" />
      <stop
         offset="1"
         stop-color="white"
         stop-opacity="0"
         id="stop1878" />
    </linearGradient>
    <linearGradient
       gradientTransform="translate(1048.5474,239.31975)"
       gradientUnits="userSpaceOnUse"
       y2="652"
       x2="868"
       y1="153.5"
       x1="369.5"
       id="paint0_linear-0">
      <stop
         id="stop1876-626"
         stop-color="white" />
      <stop
         id="stop1878-1"
         stop-opacity="0"
         stop-color="white"
         offset="1" />
    </linearGradient>
    <linearGradient
       id="paint0_linear-3"
       x1="369.5"
       y1="153.5"
       x2="868"
       y2="652"
       gradientUnits="userSpaceOnUse"
       gradientTransform="translate(443.75545,580.9908)">
      <stop
         stop-color="white"
         id="stop1876-6" />
      <stop
         offset="1"
         stop-color="white"
         stop-opacity="0"
         id="stop1878-7" />
    </linearGradient>
    <linearGradient
       id="paint0_linear-35"
       x1="369.5"
       y1="153.5"
       x2="868"
       y2="652"
       gradientUnits="userSpaceOnUse"
       gradientTransform="matrix(-1,0,0,1,1167.4284,448.58329)">
      <stop
         stop-color="white"
         id="stop1876-62" />
      <stop
         offset="1"
         stop-color="white"
         stop-opacity="0"
         id="stop1878-9" />
    </linearGradient>
  </defs>
  <sodipodi:namedview
     inkscape:window-maximized="1"
     inkscape:window-y="27"
     inkscape:window-x="0"
     inkscape:window-height="1016"
     inkscape:window-width="1920"
     showgrid="false"
     inkscape:document-rotation="0"
     inkscape:current-layer="layer1"
     inkscape:document-units="px"
     inkscape:cy="560"
     inkscape:cx="954.47999"
     inkscape:zoom="0.67521728"
     inkscape:pageshadow="2"
     inkscape:pageopacity="0.0"
     borderopacity="1.0"
     bordercolor="#666666"
     pagecolor="#ffffff"
     id="base" />
  <metadata
     id="metadata4987">
    <rdf:RDF>
      <cc:Work
         rdf:about="">
        <dc:format>image/svg+xml</dc:format>
        <dc:type
           rdf:resource="http://purl.org/dc/dcmitype/StillImage" />
        <dc:title></dc:title>
      </cc:Work>
    </rdf:RDF>
  </metadata>
  <g
     id="layer1"
     inkscape:groupmode="layer"
     inkscape:label="Layer 1">
    <path
       opacity="0.5"
       fill-rule="evenodd"
       clip-rule="evenodd"
       d="M 12.170921,899.31976 H 878.97685 c 10.9749,-147.802 -134.7429,-240.937 -213.9109,-291.538 -10.285,-6.573 -19.446,-12.429 -26.995,-17.593 -33.088,-22.637 -57.624,-72.06796 -83.719,-124.64096 -48.076,-96.856 -101.443,-204.3735 -223.332,-174.63729 C 223.85695,317.1222 62.798951,428.6518 2.2459209,595.50076 v 277.116 c 3.004,8.832 6.309,17.734 9.9250001,26.703 z"
       fill="url(#paint0_linear)"
       id="path1662"
       style="opacity:0.5;fill:url(#paint0_linear)" />
    <path
       style="opacity:0.5;fill:url(#paint0_linear-0)"
       id="path1662-8"
       fill="url(#paint0_linear)"
       d="m 1916.6224,899.31976 h -866.8059 c -10.9748,-147.802 134.7429,-240.937 213.9109,-291.538 10.285,-6.573 19.446,-12.429 26.995,-17.593 33.088,-22.637 57.624,-72.068 83.719,-124.641 48.076,-96.85601 101.443,-204.37351 223.332,-174.6373 107.163,26.21169 268.221,137.7413 328.774,304.5903 v 277.116 c -3.004,8.832 -6.309,17.734 -9.925,26.703 z"
       clip-rule="evenodd"
       fill-rule="evenodd"
       opacity="0.5" />
    <path
       opacity="0.5"
       fill-rule="evenodd"
       clip-rule="evenodd"
       d="M 1311.8304,1240.9908 H 445.02455 c -10.97488,-147.8019 134.74289,-240.9369 213.91089,-291.53799 10.285,-6.573 19.446,-12.429 26.995,-17.593 33.08804,-22.637 57.62404,-72.068 83.71904,-124.641 48.076,-96.85601 101.443,-204.37351 223.33202,-174.6373 107.163,26.21169 268.2209,137.7413 328.7739,304.5903 v 277.11599 c -3.004,8.832 -6.309,17.734 -9.925,26.703 z"
       fill="url(#paint0_linear)"
       id="path1662-5"
       style="opacity:0.5;fill:url(#paint0_linear-3)" />
    <path
       opacity="0.5"
       fill-rule="evenodd"
       clip-rule="evenodd"
       d="m 299.35338,1108.5833 h 866.80592 c 10.9749,-147.80201 -134.7429,-240.93701 -213.9109,-291.53801 -10.285,-6.573 -19.446,-12.429 -26.99498,-17.593 -33.08804,-22.637 -57.62404,-72.068 -83.71905,-124.641 -48.076,-96.85601 -101.44299,-204.3735 -223.33199,-174.63729 -107.16301,26.21169 -268.221,137.74129 -328.774,304.59029 v 277.11601 c 3.004,8.832 6.309,17.734 9.925,26.703 z"
       fill="url(#paint0_linear)"
       id="path1662-1"
       style="opacity:0.5;fill:url(#paint0_linear-35)" />
    <polygon
       style="fill:#34cb79;fill-opacity:1"
       id="polygon921"
       points="398,662 816,900 -60,900 "
       fill="#d6002b"
       transform="translate(206.62244,-0.68023682)" />
    <polygon
       style="fill:#34bc79;fill-opacity:1"
       id="polygon923"
       points="398,662 816,900 337,900 "
       fill="#b10022"
       transform="translate(206.62244,-0.68023682)" />
    <polygon
       style="fill:#34cb79;fill-opacity:1"
       id="polygon925"
       points="1552,900 876,900 1203,546 "
       fill="#d9004b"
       transform="translate(206.62244,-0.68023682)" />
    <polygon
       style="fill:#34bc79;fill-opacity:1"
       id="polygon927"
       points="1552,900 1162,900 1203,546 "
       fill="#b2003d"
       transform="translate(206.62244,-0.68023682)" />
    <polygon
       style="fill:#34cb79;fill-opacity:1"
       id="polygon929"
       points="886,900 367,900 641,695 "
       fill="#d3006c"
       transform="translate(206.62244,-0.68023682)" />
    <polygon
       style="fill:#34bc79;fill-opacity:1"
       id="polygon931"
       points="641,695 886,900 587,900 "
       fill="#ac0057"
       transform="translate(206.62244,-0.68023682)" />
    <polygon
       style="fill:#34cb79;fill-opacity:1"
       id="polygon933"
       points="1401,632 1096,900 1710,900 "
       fill="#c4008c"
       transform="translate(206.62244,-0.68023682)" />
    <polygon
       style="fill:#34bc79;fill-opacity:1"
       id="polygon935"
       points="1401,632 1365,900 1710,900 "
       fill="#9e0071"
       transform="translate(206.62244,-0.68023682)" />
    <polygon
       style="fill:#34cb79;fill-opacity:1"
       id="polygon937"
       points="971,687 725,900 1210,900 "
       fill="#aa00aa"
       transform="translate(206.62244,-0.68023682)" />
    <polygon
       style="fill:#34bc79;fill-opacity:1"
       id="polygon939"
       points="1210,900 971,687 943,900 "
       fill="#880088"
       transform="translate(206.62244,-0.68023682)" />
    <polygon
       transform="translate(-364.16759,-0.68023682)"
       fill="#d3006c"
       points="641,695 886,900 367,900 "
       id="polygon929-7"
       style="fill:#34cb79;fill-opacity:1" />
    <polygon
       transform="translate(-364.16759,-0.68023682)"
       fill="#ac0057"
       points="587,900 641,695 886,900 "
       id="polygon931-9"
       style="fill:#34bc79;fill-opacity:1" />
  </g>
</svg>
